<svg xmlns="http://www.w3.org/2000/svg" width="774" height="80" viewBox="0 0 774 80">
  <path id="Text" d="M586-268H-108a39.749,39.749,0,0,1-15.57-3.143,39.866,39.866,0,0,1-12.714-8.572,39.864,39.864,0,0,1-8.572-12.714A39.749,39.749,0,0,1-148-308a39.749,39.749,0,0,1,3.143-15.57,39.866,39.866,0,0,1,8.572-12.715,39.866,39.866,0,0,1,12.714-8.573A39.75,39.75,0,0,1-108-348H586a39.75,39.75,0,0,1,15.57,3.143,39.869,39.869,0,0,1,12.715,8.573,39.865,39.865,0,0,1,8.572,12.715A39.749,39.749,0,0,1,626-308a39.749,39.749,0,0,1-3.144,15.57,39.866,39.866,0,0,1-8.572,12.714,39.869,39.869,0,0,1-12.715,8.572A39.749,39.749,0,0,1,586-268ZM397.987-309.12a3.835,3.835,0,0,1,2.87.98,3.688,3.688,0,0,1,.945,2.66v11.795h.007a3.94,3.94,0,0,0,2.285-.541,1.959,1.959,0,0,0,.753-1.7v-9.869a5.967,5.967,0,0,0-1.645-4.34,6.008,6.008,0,0,0-4.48-1.68,7.44,7.44,0,0,0-3.64.927,8.151,8.151,0,0,0-2.731,2.4l-.139-.139a6.416,6.416,0,0,1,.734-.945v-2.24c-1.951,0-2.939.872-2.939,2.59v15.539h.007a3.944,3.944,0,0,0,2.285-.541,1.961,1.961,0,0,0,.752-1.7v-9.169a3.345,3.345,0,0,1,.682-2.013,4.771,4.771,0,0,1,1.821-1.47A5.6,5.6,0,0,1,397.987-309.12Zm-36.75-.069a2.574,2.574,0,0,1,2.2.945,4.349,4.349,0,0,1,.7,2.624v11.935h.007a3.867,3.867,0,0,0,2.25-.541,1.959,1.959,0,0,0,.752-1.7v-9.869a6.74,6.74,0,0,0-1.347-4.358,4.671,4.671,0,0,0-3.832-1.662,6.119,6.119,0,0,0-5.32,3.045,4.376,4.376,0,0,0-4.376-3.045,4.987,4.987,0,0,0-2.9.875,10.007,10.007,0,0,0-2.381,2.45l-.139-.139a6.141,6.141,0,0,1,.734-.945v-2.24c-1.928,0-2.9.872-2.9,2.59v15.539h.007a3.871,3.871,0,0,0,2.25-.541,1.961,1.961,0,0,0,.752-1.7V-305.2a3.934,3.934,0,0,1,1.12-2.835,3.675,3.675,0,0,1,2.731-1.155,2.574,2.574,0,0,1,2.2.945,4.354,4.354,0,0,1,.7,2.624v11.935h.007a3.78,3.78,0,0,0,2.232-.541,1.979,1.979,0,0,0,.735-1.7v-9.345a3.769,3.769,0,0,1,1.12-2.852A3.779,3.779,0,0,1,361.237-309.19Zm-27.02,0a2.574,2.574,0,0,1,2.205.945,4.354,4.354,0,0,1,.7,2.624v11.935h.007a3.871,3.871,0,0,0,2.25-.541,1.961,1.961,0,0,0,.752-1.7v-9.869a6.74,6.74,0,0,0-1.347-4.358,4.672,4.672,0,0,0-3.833-1.662,6.122,6.122,0,0,0-5.32,3.045,4.374,4.374,0,0,0-4.375-3.045,4.993,4.993,0,0,0-2.905.875,10.02,10.02,0,0,0-2.38,2.45l-.14-.139a6.2,6.2,0,0,1,.735-.945v-2.24c-1.928,0-2.905.872-2.905,2.59v15.539h.007a3.872,3.872,0,0,0,2.251-.541,1.961,1.961,0,0,0,.752-1.7V-305.2a3.934,3.934,0,0,1,1.12-2.835,3.675,3.675,0,0,1,2.731-1.155,2.574,2.574,0,0,1,2.2.945,4.354,4.354,0,0,1,.7,2.624v11.935h.007a3.781,3.781,0,0,0,2.233-.541,1.979,1.979,0,0,0,.735-1.7v-9.345a3.771,3.771,0,0,1,1.12-2.852A3.783,3.783,0,0,1,334.218-309.19Zm-88.83-2.625c-1.951,0-2.94.871-2.94,2.59v15.539h.007a3.941,3.941,0,0,0,2.285-.541,1.959,1.959,0,0,0,.752-1.7v-9.169a3.724,3.724,0,0,1,1.3-2.853,4.691,4.691,0,0,1,3.255-1.173,5.513,5.513,0,0,1,2.59.526,2.038,2.038,0,0,0,.315-1.121,1.959,1.959,0,0,0-.665-1.488,2.76,2.76,0,0,0-1.925-.612,6.619,6.619,0,0,0-5.6,3.325l-.14-.139a4.241,4.241,0,0,1,.77-1.05ZM132.582-297.009l.14.139a6.414,6.414,0,0,1-.734.945v2.24c1.951,0,2.939-.872,2.939-2.589v-15.54h-.007a3.937,3.937,0,0,0-2.285.542,1.96,1.96,0,0,0-.752,1.7v9.17a3.464,3.464,0,0,1-.647,2.012,4.575,4.575,0,0,1-1.732,1.47,5.272,5.272,0,0,1-2.381.543,3.987,3.987,0,0,1-2.957-1.015,3.694,3.694,0,0,1-1-2.695v-11.725h-.007a4.023,4.023,0,0,0-2.3.542,1.942,1.942,0,0,0-.77,1.7v9.624a6.605,6.605,0,0,0,.787,3.22,5.618,5.618,0,0,0,2.239,2.24,6.815,6.815,0,0,0,3.343.8,6.932,6.932,0,0,0,3.483-.91A8.1,8.1,0,0,0,132.582-297.009ZM91.318-309.12a3.835,3.835,0,0,1,2.87.98,3.687,3.687,0,0,1,.945,2.66v11.795h.007a3.941,3.941,0,0,0,2.285-.541,1.961,1.961,0,0,0,.752-1.7v-9.869a5.964,5.964,0,0,0-1.645-4.34,6,6,0,0,0-4.479-1.68,7.446,7.446,0,0,0-3.64.927,8.16,8.16,0,0,0-2.73,2.4l-.14-.139a6.4,6.4,0,0,1,.735-.945v-2.24c-1.952,0-2.94.872-2.94,2.59v15.539h.007a3.941,3.941,0,0,0,2.285-.541,1.959,1.959,0,0,0,.753-1.7v-9.169a3.339,3.339,0,0,1,.682-2.013,4.766,4.766,0,0,1,1.82-1.47A5.606,5.606,0,0,1,91.318-309.12Zm-46.725,0a3.835,3.835,0,0,1,2.87.98,3.687,3.687,0,0,1,.945,2.66v11.795h.007a3.941,3.941,0,0,0,2.285-.541,1.959,1.959,0,0,0,.752-1.7v-9.869a5.967,5.967,0,0,0-1.644-4.34,6.008,6.008,0,0,0-4.48-1.68,7.446,7.446,0,0,0-3.64.927,8.16,8.16,0,0,0-2.73,2.4l-.139-.139a6.413,6.413,0,0,1,.734-.945v-2.24c-1.951,0-2.939.872-2.939,2.59v15.539h.007a3.944,3.944,0,0,0,2.285-.541,1.961,1.961,0,0,0,.752-1.7v-9.169a3.345,3.345,0,0,1,.682-2.013,4.774,4.774,0,0,1,1.82-1.47A5.606,5.606,0,0,1,44.592-309.12Zm419.44,10.85a2.187,2.187,0,0,0-1.628.665,2.276,2.276,0,0,0-.647,1.645,2.219,2.219,0,0,0,.647,1.627,2.216,2.216,0,0,0,1.628.647,2.318,2.318,0,0,0,1.644-.665,2.145,2.145,0,0,0,.7-1.609,2.205,2.205,0,0,0-.7-1.628A2.289,2.289,0,0,0,464.033-298.27Zm-8.47,0a2.241,2.241,0,0,0-1.645.665,2.241,2.241,0,0,0-.665,1.645,2.185,2.185,0,0,0,.665,1.627,2.272,2.272,0,0,0,1.645.647,2.317,2.317,0,0,0,1.644-.665,2.145,2.145,0,0,0,.7-1.609,2.205,2.205,0,0,0-.7-1.628A2.289,2.289,0,0,0,455.563-298.27Zm-8.505,0a2.262,2.262,0,0,0-1.628.665,2.214,2.214,0,0,0-.682,1.645,2.173,2.173,0,0,0,.682,1.609,2.262,2.262,0,0,0,1.628.665,2.335,2.335,0,0,0,1.662-.647,2.16,2.16,0,0,0,.682-1.627,2.214,2.214,0,0,0-.682-1.645A2.3,2.3,0,0,0,447.058-298.27Zm-12.705-13.545a8.1,8.1,0,0,0-3.693.858,6.92,6.92,0,0,0-2.695,2.363,5.971,5.971,0,0,0-1,3.36v5.18a5.9,5.9,0,0,0,.945,3.273,6.447,6.447,0,0,0,2.625,2.274,8.592,8.592,0,0,0,3.815.823,9.461,9.461,0,0,0,3.36-.595,6.954,6.954,0,0,0,2.538-1.575,2.979,2.979,0,0,0,.962-2.1,1.558,1.558,0,0,0-.717-1.382,2.682,2.682,0,0,0-1.5-.411c-.086,0-.176,0-.267.009a3.184,3.184,0,0,1-1.12,2.554,4.948,4.948,0,0,1-3.255.945,4.577,4.577,0,0,1-3.272-1.084,3.8,3.8,0,0,1-1.138-2.87v-1.575h10.219a1.456,1.456,0,0,0,1.015-.385,1.237,1.237,0,0,0,.42-.945v-2.24a5.961,5.961,0,0,0-.963-3.325,6.68,6.68,0,0,0-2.624-2.31A8.034,8.034,0,0,0,434.353-311.815Zm-18.025,0a8.538,8.538,0,0,0-3.78.8,6.3,6.3,0,0,0-2.572,2.24,5.954,5.954,0,0,0-.928,3.29v5.67a5.661,5.661,0,0,0,.928,3.185,6.109,6.109,0,0,0,2.607,2.17,9.1,9.1,0,0,0,3.815.769,10.391,10.391,0,0,0,3.57-.577,5.647,5.647,0,0,0,2.45-1.628,3.63,3.63,0,0,0,.875-2.38,1.673,1.673,0,0,0-.682-1.417,2.521,2.521,0,0,0-1.537-.446c-.087,0-.176,0-.266.008a3.423,3.423,0,0,1-1.208,2.695,4.619,4.619,0,0,1-3.132,1.05,4.852,4.852,0,0,1-3.15-1,3.18,3.18,0,0,1-1.225-2.573v-5.459a3.39,3.39,0,0,1,1.19-2.677,4.6,4.6,0,0,1,3.115-1.033,4.619,4.619,0,0,1,3.132,1.05,3.461,3.461,0,0,1,1.208,2.73c.078.005.16.008.243.008a2.385,2.385,0,0,0,1.524-.48,1.732,1.732,0,0,0,.682-1.418,3.633,3.633,0,0,0-.875-2.379,5.642,5.642,0,0,0-2.433-1.627A10.21,10.21,0,0,0,416.327-311.815Zm-37.59,0a8.1,8.1,0,0,0-3.692.858,6.917,6.917,0,0,0-2.7,2.363,5.971,5.971,0,0,0-1,3.36v5.18a5.9,5.9,0,0,0,.945,3.273,6.442,6.442,0,0,0,2.625,2.274,8.589,8.589,0,0,0,3.814.823,9.471,9.471,0,0,0,3.361-.595,6.959,6.959,0,0,0,2.537-1.575,2.98,2.98,0,0,0,.963-2.1,1.557,1.557,0,0,0-.718-1.382,2.677,2.677,0,0,0-1.5-.411c-.086,0-.176,0-.266.009a3.182,3.182,0,0,1-1.12,2.554,4.948,4.948,0,0,1-3.255.945,4.58,4.58,0,0,1-3.272-1.084,3.8,3.8,0,0,1-1.138-2.87v-1.575h10.22a1.456,1.456,0,0,0,1.015-.385,1.237,1.237,0,0,0,.419-.945v-2.24a5.962,5.962,0,0,0-.962-3.325,6.677,6.677,0,0,0-2.625-2.31A8.029,8.029,0,0,0,378.737-311.815Zm-72.66,0a8.764,8.764,0,0,0-3.885.84,6.7,6.7,0,0,0-2.677,2.275,5.619,5.619,0,0,0-.962,3.185v5.74a5.318,5.318,0,0,0,.962,3.1,6.592,6.592,0,0,0,2.7,2.188,9.112,9.112,0,0,0,3.867.8,9.087,9.087,0,0,0,3.885-.8,6.747,6.747,0,0,0,2.695-2.188,5.253,5.253,0,0,0,.98-3.1v-5.74a5.619,5.619,0,0,0-.962-3.185,6.677,6.677,0,0,0-2.7-2.275A8.87,8.87,0,0,0,306.077-311.815Zm-16.765,0a8.538,8.538,0,0,0-3.78.8,6.3,6.3,0,0,0-2.572,2.24,5.954,5.954,0,0,0-.928,3.29v5.67a5.661,5.661,0,0,0,.928,3.185,6.109,6.109,0,0,0,2.607,2.17,9.109,9.109,0,0,0,3.815.769,10.391,10.391,0,0,0,3.57-.577,5.647,5.647,0,0,0,2.45-1.628,3.63,3.63,0,0,0,.875-2.38,1.673,1.673,0,0,0-.682-1.417,2.52,2.52,0,0,0-1.537-.446c-.087,0-.176,0-.266.008a3.423,3.423,0,0,1-1.208,2.695,4.619,4.619,0,0,1-3.132,1.05,4.852,4.852,0,0,1-3.15-1,3.18,3.18,0,0,1-1.225-2.573v-5.459a3.392,3.392,0,0,1,1.19-2.677,4.6,4.6,0,0,1,3.115-1.033,4.624,4.624,0,0,1,3.133,1.05,3.463,3.463,0,0,1,1.207,2.73c.078.005.16.008.243.008a2.381,2.381,0,0,0,1.524-.48,1.732,1.732,0,0,0,.683-1.418,3.629,3.629,0,0,0-.876-2.379,5.646,5.646,0,0,0-2.432-1.627A10.22,10.22,0,0,0,289.312-311.815Zm-27.229,0a8.1,8.1,0,0,0-3.693.858,6.911,6.911,0,0,0-2.695,2.363,5.971,5.971,0,0,0-1,3.36v5.18a5.9,5.9,0,0,0,.945,3.273,6.442,6.442,0,0,0,2.625,2.274,8.592,8.592,0,0,0,3.815.823,9.468,9.468,0,0,0,3.36-.595,6.954,6.954,0,0,0,2.538-1.575,2.979,2.979,0,0,0,.962-2.1,1.558,1.558,0,0,0-.717-1.382,2.682,2.682,0,0,0-1.5-.411c-.086,0-.176,0-.267.009a3.182,3.182,0,0,1-1.12,2.554,4.943,4.943,0,0,1-3.254.945,4.577,4.577,0,0,1-3.272-1.084,3.8,3.8,0,0,1-1.138-2.87v-1.575h10.219a1.456,1.456,0,0,0,1.015-.385,1.237,1.237,0,0,0,.42-.945v-2.24a5.962,5.962,0,0,0-.963-3.325,6.68,6.68,0,0,0-2.624-2.31A8.034,8.034,0,0,0,262.083-311.815Zm-30.905,0a8.1,8.1,0,0,0-3.693.858,6.92,6.92,0,0,0-2.695,2.363,5.971,5.971,0,0,0-1,3.36v5.18a5.9,5.9,0,0,0,.945,3.273,6.447,6.447,0,0,0,2.625,2.274,8.591,8.591,0,0,0,3.815.823,9.461,9.461,0,0,0,3.36-.595,6.954,6.954,0,0,0,2.538-1.575,2.979,2.979,0,0,0,.962-2.1,1.558,1.558,0,0,0-.717-1.382,2.682,2.682,0,0,0-1.5-.411c-.086,0-.176,0-.266.009a3.184,3.184,0,0,1-1.12,2.554,4.948,4.948,0,0,1-3.255.945,4.577,4.577,0,0,1-3.272-1.084,3.8,3.8,0,0,1-1.138-2.87v-1.575h10.219a1.456,1.456,0,0,0,1.015-.385,1.237,1.237,0,0,0,.42-.945v-2.24a5.962,5.962,0,0,0-.963-3.325,6.68,6.68,0,0,0-2.624-2.31A8.034,8.034,0,0,0,231.178-311.815Zm-27.335,0a8.1,8.1,0,0,0-3.693.858,6.917,6.917,0,0,0-2.7,2.363,5.977,5.977,0,0,0-1,3.36v5.18a5.9,5.9,0,0,0,.945,3.273,6.442,6.442,0,0,0,2.625,2.274,8.591,8.591,0,0,0,3.815.823,9.468,9.468,0,0,0,3.36-.595,6.954,6.954,0,0,0,2.537-1.575,2.98,2.98,0,0,0,.963-2.1,1.558,1.558,0,0,0-.717-1.382,2.682,2.682,0,0,0-1.5-.411c-.086,0-.176,0-.267.009a3.182,3.182,0,0,1-1.12,2.554,4.943,4.943,0,0,1-3.254.945,4.577,4.577,0,0,1-3.272-1.084,3.8,3.8,0,0,1-1.138-2.87v-1.575h10.219a1.456,1.456,0,0,0,1.015-.385,1.237,1.237,0,0,0,.42-.945v-2.24a5.962,5.962,0,0,0-.963-3.325,6.68,6.68,0,0,0-2.624-2.31A8.034,8.034,0,0,0,203.843-311.815Zm-15.085-7a3.953,3.953,0,0,0-2.293.543,1.96,1.96,0,0,0-.752,1.7v17.745a5.425,5.425,0,0,0,1.26,3.727,4.865,4.865,0,0,0,3.815,1.417,3.949,3.949,0,0,0,2.345-.63,1.807,1.807,0,0,0,.875-1.47,1.821,1.821,0,0,0-.455-1.225,4.671,4.671,0,0,1-2.38.63,2.47,2.47,0,0,1-1.855-.595,2.825,2.825,0,0,1-.56-1.96Zm-11.1,0a3.947,3.947,0,0,0-2.292.543,1.958,1.958,0,0,0-.753,1.7v17.745a5.425,5.425,0,0,0,1.26,3.727,4.865,4.865,0,0,0,3.815,1.417,3.949,3.949,0,0,0,2.345-.63,1.807,1.807,0,0,0,.875-1.47,1.821,1.821,0,0,0-.454-1.225,4.677,4.677,0,0,1-2.38.63,2.47,2.47,0,0,1-1.855-.595,2.825,2.825,0,0,1-.56-1.96Zm-14.315,7a8.1,8.1,0,0,0-3.693.858,6.92,6.92,0,0,0-2.695,2.363,5.971,5.971,0,0,0-1,3.36v5.18a5.9,5.9,0,0,0,.945,3.273,6.446,6.446,0,0,0,2.624,2.274,8.6,8.6,0,0,0,3.815.823,9.471,9.471,0,0,0,3.361-.595,6.959,6.959,0,0,0,2.537-1.575,2.979,2.979,0,0,0,.962-2.1,1.557,1.557,0,0,0-.717-1.382,2.678,2.678,0,0,0-1.5-.411c-.086,0-.176,0-.267.009a3.182,3.182,0,0,1-1.12,2.554,4.948,4.948,0,0,1-3.255.945,4.58,4.58,0,0,1-3.272-1.084,3.8,3.8,0,0,1-1.138-2.87v-1.575h10.22a1.459,1.459,0,0,0,1.015-.385,1.237,1.237,0,0,0,.419-.945v-2.24a5.962,5.962,0,0,0-.962-3.325,6.677,6.677,0,0,0-2.625-2.31A8.029,8.029,0,0,0,163.347-311.815Zm-23.975,0a3.946,3.946,0,0,0-.7.07,2.283,2.283,0,0,0-.6.175l6.72,16.9a1.56,1.56,0,0,0,.595.7,1.668,1.668,0,0,0,.945.28,1.587,1.587,0,0,0,.928-.28,1.585,1.585,0,0,0,.577-.7l6.72-16.9a2.961,2.961,0,0,0-.63-.175,3.95,3.95,0,0,0-.7-.07,2.583,2.583,0,0,0-1.329.35,1.758,1.758,0,0,0-.806,1.015l-5.25,14.035-.175-.07.49-1.4-4.621-12.565a1.752,1.752,0,0,0-.8-1.015A2.657,2.657,0,0,0,139.372-311.815Zm-29.994,0a8.759,8.759,0,0,0-3.885.84,6.7,6.7,0,0,0-2.678,2.275,5.619,5.619,0,0,0-.963,3.185v5.74a5.318,5.318,0,0,0,.963,3.1,6.59,6.59,0,0,0,2.695,2.188,9.12,9.12,0,0,0,3.868.8,9.079,9.079,0,0,0,3.884-.8,6.745,6.745,0,0,0,2.7-2.188,5.253,5.253,0,0,0,.98-3.1v-5.74a5.619,5.619,0,0,0-.963-3.185,6.681,6.681,0,0,0-2.695-2.275A8.876,8.876,0,0,0,109.378-311.815Zm-46.34,0a8.1,8.1,0,0,0-3.693.858,6.917,6.917,0,0,0-2.7,2.363,5.977,5.977,0,0,0-1,3.36v5.18a5.9,5.9,0,0,0,.945,3.273,6.442,6.442,0,0,0,2.625,2.274,8.592,8.592,0,0,0,3.815.823,9.468,9.468,0,0,0,3.36-.595,6.953,6.953,0,0,0,2.537-1.575,2.98,2.98,0,0,0,.963-2.1,1.558,1.558,0,0,0-.717-1.382,2.682,2.682,0,0,0-1.5-.411c-.086,0-.176,0-.267.009a3.182,3.182,0,0,1-1.12,2.554,4.943,4.943,0,0,1-3.254.945,4.577,4.577,0,0,1-3.272-1.084,3.8,3.8,0,0,1-1.138-2.87v-1.575h10.22a1.456,1.456,0,0,0,1.015-.385,1.237,1.237,0,0,0,.42-.945v-2.24a5.962,5.962,0,0,0-.963-3.325,6.68,6.68,0,0,0-2.624-2.31A8.034,8.034,0,0,0,63.038-311.815Zm-47.425-7a3.754,3.754,0,0,0-2.45.7,2.5,2.5,0,0,0-.84,2.029v13.756A8.023,8.023,0,0,0,13.6-297.9a8.782,8.782,0,0,0,3.517,3.1,11.087,11.087,0,0,0,5.006,1.12,11.085,11.085,0,0,0,5-1.12,8.663,8.663,0,0,0,3.5-3.1,8.1,8.1,0,0,0,1.26-4.427v-16.485h-.006a3.75,3.75,0,0,0-2.445.7,2.5,2.5,0,0,0-.84,2.029v13.756a5.268,5.268,0,0,1-1.785,4.13,6.863,6.863,0,0,1-4.69,1.575,6.928,6.928,0,0,1-4.708-1.575,5.244,5.244,0,0,1-1.8-4.13Zm209.93-.735,4.3,5.18a1.723,1.723,0,0,0,.98.63,5.784,5.784,0,0,0,1.213.094c.266,0,.568-.008.922-.023l-2.66-4.69a2.825,2.825,0,0,0-2.7-1.191Zm80.535,23.241a5.212,5.212,0,0,1-3.343-1,3.2,3.2,0,0,1-1.242-2.607v-5.495a3.4,3.4,0,0,1,1.26-2.731,5.044,5.044,0,0,1,3.325-1.049,5.031,5.031,0,0,1,3.343,1.049,3.422,3.422,0,0,1,1.243,2.731v5.495a3.2,3.2,0,0,1-1.243,2.607A5.208,5.208,0,0,1,306.077-296.31Zm-196.7,0a5.208,5.208,0,0,1-3.343-1,3.2,3.2,0,0,1-1.243-2.607v-5.495a3.4,3.4,0,0,1,1.26-2.731,5.046,5.046,0,0,1,3.326-1.049,5.029,5.029,0,0,1,3.342,1.049,3.42,3.42,0,0,1,1.243,2.731v5.495a3.2,3.2,0,0,1-1.243,2.607A5.207,5.207,0,0,1,109.378-296.31Zm329.385-7.84h-8.82v-1.191a3.7,3.7,0,0,1,1.208-2.852,4.582,4.582,0,0,1,3.2-1.1,4.582,4.582,0,0,1,3.2,1.1,3.7,3.7,0,0,1,1.208,2.852v1.19Zm-55.615,0h-8.82v-1.191a3.7,3.7,0,0,1,1.208-2.852,4.585,4.585,0,0,1,3.2-1.1,4.586,4.586,0,0,1,3.2,1.1,3.7,3.7,0,0,1,1.207,2.852v1.19Zm-116.654,0h-8.82v-1.191a3.7,3.7,0,0,1,1.207-2.852,4.586,4.586,0,0,1,3.2-1.1,4.582,4.582,0,0,1,3.2,1.1,3.7,3.7,0,0,1,1.208,2.852v1.19Zm-30.905,0h-8.82v-1.191a3.7,3.7,0,0,1,1.208-2.852,4.582,4.582,0,0,1,3.2-1.1,4.582,4.582,0,0,1,3.2,1.1,3.7,3.7,0,0,1,1.208,2.852v1.19Zm-27.335,0h-8.82v-1.191a3.7,3.7,0,0,1,1.207-2.852,4.586,4.586,0,0,1,3.2-1.1,4.582,4.582,0,0,1,3.2,1.1,3.7,3.7,0,0,1,1.208,2.852v1.19Zm-40.5,0h-8.82v-1.191a3.7,3.7,0,0,1,1.208-2.852,4.582,4.582,0,0,1,3.2-1.1,4.586,4.586,0,0,1,3.2,1.1,3.7,3.7,0,0,1,1.207,2.852v1.19Zm-100.31,0h-8.82v-1.191a3.7,3.7,0,0,1,1.207-2.852,4.586,4.586,0,0,1,3.2-1.1,4.582,4.582,0,0,1,3.2,1.1,3.7,3.7,0,0,1,1.208,2.852v1.19Z" transform="translate(148 348)" fill="#fff"/>
</svg>
